<svg width="121" height="30" viewBox="0 0 121 30" fill="none" xmlns="http://www.w3.org/2000/svg">
<path d="M49.848 26.1629H48.642V29.5119H48.15V26.1629H46.95V25.7629H49.85L49.848 26.1629Z" fill="#909090"/>
<path d="M54.7641 29.512H54.2641V27.778H52.373V29.513H51.873V25.761H52.373V27.372H54.2641V25.761H54.7641V29.512Z" fill="#909090"/>
<path d="M59.241 27.778H57.615V29.107H59.503V29.512H57.119V25.761H59.478V26.161H57.614V27.37H59.24L59.241 27.778Z" fill="#909090"/>
<path d="M67.818 26.1629H66.612V29.5119H66.12V26.1629H64.92V25.7629H67.82L67.818 26.1629Z" fill="#909090"/>
<path d="M71.971 27.778H70.345V29.107H72.236V29.512H69.849V25.761H72.208V26.161H70.344V27.37H71.97L71.971 27.778Z" fill="#909090"/>
<path d="M76.398 28.531H74.829L74.475 29.512H73.965L75.396 25.761H75.831L77.265 29.512H76.758L76.398 28.531ZM74.976 28.126H76.251L75.621 26.37L74.976 28.126Z" fill="#909090"/>
<path d="M81.979 28.268C81.9532 28.6187 81.7957 28.9466 81.538 29.186C81.2626 29.412 80.9129 29.5275 80.557 29.5099C80.3548 29.5174 80.1536 29.4782 79.9689 29.3955C79.7843 29.3128 79.6211 29.1888 79.492 29.033C79.2103 28.6696 79.0684 28.2171 79.092 27.758V27.3979C79.0859 27.081 79.1494 26.7667 79.278 26.477C79.394 26.2303 79.5783 26.0221 79.809 25.877C80.0476 25.7326 80.3222 25.6588 80.601 25.664C80.9525 25.6468 81.2969 25.7674 81.561 26C81.811 26.2438 81.9608 26.5723 81.981 26.921H81.481C81.4623 26.6791 81.3642 26.4503 81.202 26.27C81.0346 26.1296 80.8201 26.0581 80.602 26.07C80.459 26.0651 80.317 26.0944 80.1876 26.1555C80.0582 26.2165 79.9452 26.3075 79.858 26.421C79.6627 26.7164 79.5689 27.0675 79.591 27.421V27.784C79.5725 28.1266 79.6616 28.4665 79.846 28.756C79.9245 28.8718 80.0313 28.9656 80.1563 29.0286C80.2812 29.0916 80.4202 29.1217 80.56 29.116C80.7854 29.1302 81.0085 29.0643 81.19 28.93C81.3638 28.7553 81.4701 28.5246 81.49 28.279L81.979 28.268Z" fill="#909090"/>
<path d="M87.015 29.512H86.515V27.778H84.624V29.513H84.124V25.761H84.624V27.372H86.515V25.761H87.015V29.512Z" fill="#909090"/>
<path d="M89.901 25.761H89.406V29.512H89.901V25.761Z" fill="#909090"/>
<path d="M95.161 29.512H94.661L92.773 26.619V29.512H92.273V25.761H92.773L94.667 28.661V25.761H95.159L95.161 29.512Z" fill="#909090"/>
<path d="M100.29 28.96C100.159 29.1468 99.9733 29.2891 99.759 29.3681C99.5033 29.4633 99.2319 29.5091 98.959 29.503C98.6736 29.5079 98.3924 29.4342 98.146 29.29C97.9087 29.1466 97.7173 28.9384 97.594 28.6901C97.4593 28.4019 97.3909 28.0871 97.394 27.769V27.43C97.3658 26.9583 97.5077 26.492 97.794 26.116C97.9318 25.9596 98.1033 25.8364 98.2956 25.7559C98.4878 25.6753 98.6959 25.6395 98.904 25.651C99.245 25.6333 99.5807 25.7399 99.849 25.9511C100.098 26.1693 100.254 26.4738 100.287 26.803H99.787C99.7784 26.6958 99.7485 26.5912 99.6992 26.4955C99.65 26.3998 99.5823 26.3148 99.5 26.2453C99.4178 26.1759 99.3226 26.1234 99.2199 26.0909C99.1173 26.0585 99.0093 26.0466 98.902 26.056C98.7575 26.0473 98.6131 26.0745 98.4817 26.1353C98.3503 26.196 98.236 26.2883 98.149 26.404C97.9588 26.7055 97.8685 27.0593 97.891 27.415V27.7151C97.8756 28.0727 97.9813 28.425 98.191 28.7151C98.2813 28.8357 98.3993 28.9328 98.5351 28.9981C98.6709 29.0634 98.8204 29.0949 98.971 29.0901C99.1352 29.0929 99.299 29.0717 99.457 29.027C99.5883 28.9897 99.7073 28.9183 99.802 28.82V27.9801H98.935V27.58H100.294L100.29 28.96Z" fill="#909090"/>
<path d="M107.871 28.531H106.299L105.945 29.512H105.438L106.869 25.761H107.301L108.735 29.512H108.228L107.871 28.531ZM106.449 28.126H107.73L107.091 26.37L106.449 28.126Z" fill="#909090"/>
<path d="M111.214 28.0409V29.5109H110.731V25.7609H112.114C112.462 25.7378 112.806 25.8447 113.08 26.0609C113.196 26.166 113.287 26.2951 113.348 26.4391C113.408 26.5832 113.437 26.7387 113.431 26.8949C113.441 27.0516 113.415 27.2085 113.356 27.3539C113.296 27.4993 113.205 27.6295 113.089 27.7349C112.811 27.9509 112.463 28.0576 112.111 28.0349L111.214 28.0409ZM111.214 27.6409H112.114C112.33 27.6521 112.543 27.585 112.714 27.4519C112.787 27.383 112.843 27.2988 112.88 27.2055C112.916 27.1121 112.931 27.0118 112.924 26.9119C112.928 26.8127 112.912 26.7137 112.876 26.6212C112.84 26.5287 112.785 26.4448 112.714 26.3749C112.554 26.2331 112.346 26.1589 112.132 26.1679H111.217L111.214 27.6409Z" fill="#909090"/>
<path d="M116.018 28.0419V29.5119H115.532V25.7609H116.918C117.265 25.7378 117.608 25.8447 117.881 26.0609C118.099 26.285 118.222 26.5855 118.222 26.8984C118.222 27.2113 118.099 27.5118 117.881 27.7359C117.602 27.9514 117.255 28.058 116.903 28.0359L116.018 28.0419ZM116.018 27.6419H116.918C117.134 27.6551 117.348 27.5878 117.518 27.4529C117.591 27.3843 117.648 27.3002 117.685 27.2069C117.722 27.1135 117.738 27.0131 117.731 26.9129C117.735 26.8135 117.718 26.7143 117.682 26.6218C117.645 26.5293 117.589 26.4455 117.518 26.3759C117.359 26.2341 117.152 26.1598 116.939 26.1689H116.021L116.018 27.6419Z" fill="#909090"/>
<path d="M70.035 2.63788C70.0311 2.85374 69.9885 3.06714 69.909 3.26788L64.982 19.6909C64.7847 20.306 64.4001 20.844 63.882 21.2299C63.3654 21.6245 62.7321 21.8356 62.082 21.8299H61.998C61.3447 21.8399 60.7059 21.6362 60.1788 21.25C59.6518 20.8637 59.2653 20.3159 59.078 19.6899L54.998 6.25988L50.91 19.6909C50.705 20.3121 50.3105 20.8535 49.7819 21.239C49.2533 21.6244 48.6172 21.8346 47.963 21.8399H47.879C47.2279 21.8527 46.5922 21.6408 46.079 21.2399C45.572 20.8462 45.199 20.3056 45.011 19.6919L40.044 3.26888C39.99 3.06317 39.9618 2.85155 39.96 2.63888C39.9638 2.08824 40.1786 1.56 40.56 1.16288C40.7668 0.939414 41.0196 0.763571 41.3011 0.647535C41.5825 0.5315 41.8859 0.478047 42.19 0.490881C42.6658 0.492379 43.1285 0.646617 43.51 0.930881C43.8992 1.20044 44.1874 1.5921 44.329 2.04388L48.206 15.8439L52.512 2.24988C52.6911 1.73762 53.0205 1.29121 53.457 0.968881C53.9184 0.641058 54.4743 0.473185 55.04 0.490881C55.57 0.490489 56.0862 0.659747 56.513 0.973881C56.9606 1.2905 57.2992 1.73801 57.482 2.25488L61.782 15.8609L65.656 2.06088C65.7722 1.60746 66.0495 1.21184 66.436 0.947881C66.8343 0.648507 67.3198 0.487975 67.818 0.490881C68.1153 0.482251 68.4111 0.535685 68.6866 0.647773C68.9621 0.759862 69.2112 0.928143 69.418 1.14188C69.6175 1.33743 69.776 1.57083 69.8842 1.82839C69.9924 2.08596 70.0481 2.36252 70.048 2.64188" fill="#0A0045"/>
<path d="M77.45 19.615C77.455 19.9107 77.3974 20.2042 77.2811 20.4761C77.1648 20.7481 76.9923 20.9924 76.775 21.193C76.4622 21.5077 76.0629 21.7225 75.6279 21.8102C75.1929 21.8978 74.7417 21.8544 74.3313 21.6855C73.921 21.5165 73.57 21.2296 73.3229 20.861C73.0757 20.4924 72.9435 20.0588 72.943 19.615V2.68101C72.9404 2.39359 72.9969 2.1087 73.1088 1.84397C73.2208 1.57925 73.386 1.34033 73.594 1.14201C73.8129 0.925007 74.0739 0.755184 74.3609 0.643041C74.648 0.530897 74.955 0.478815 75.263 0.490014C75.5499 0.487836 75.8342 0.544477 76.0984 0.656444C76.3626 0.76841 76.601 0.933326 76.799 1.14101C77.0076 1.33907 77.1733 1.57787 77.2858 1.84261C77.3983 2.10735 77.4552 2.39237 77.453 2.68001L77.45 19.615Z" fill="#0A0045"/>
<path d="M97.752 15.464C97.7574 16.3333 97.571 17.193 97.206 17.982C96.8332 18.7725 96.2763 19.4622 95.582 19.993C94.7787 20.5981 93.8729 21.0534 92.908 21.337C91.7328 21.6855 90.5116 21.854 89.286 21.837C88.5524 21.8346 87.8201 21.7774 87.095 21.666C86.3407 21.5575 85.5947 21.3982 84.862 21.189C84.1592 20.9912 83.4806 20.7154 82.839 20.367C82.2668 20.0676 81.7527 19.6683 81.321 19.188C81.0422 18.8903 80.8905 18.4957 80.898 18.088C80.8955 17.8336 80.9478 17.5816 81.0513 17.3491C81.1548 17.1167 81.3072 16.9093 81.498 16.741C81.8589 16.3907 82.3421 16.1948 82.845 16.195C83.205 16.1874 83.5584 16.2923 83.856 16.495C84.6782 17.0463 85.5704 17.4852 86.509 17.8C87.4575 18.1311 88.4544 18.3025 89.459 18.307C90.5148 18.3862 91.5678 18.1198 92.459 17.548C92.7632 17.3255 93.0097 17.0333 93.1777 16.6959C93.3458 16.3586 93.4306 15.9858 93.425 15.609C93.4315 15.3031 93.3502 15.0018 93.1907 14.7407C93.0312 14.4796 92.8001 14.2698 92.525 14.136C91.8067 13.7568 91.0419 13.4734 90.25 13.293C89.335 13.068 88.344 12.846 87.279 12.618C86.2531 12.4088 85.2585 12.0679 84.32 11.604C83.442 11.1729 82.6664 10.5592 82.045 9.80398C81.3829 8.90416 81.056 7.80125 81.121 6.68598C81.1209 5.86831 81.3076 5.06143 81.667 4.32698C82.0417 3.55942 82.5804 2.88351 83.245 2.34698C83.9968 1.75556 84.8472 1.30158 85.757 1.00598C86.8693 0.646212 88.0331 0.471554 89.202 0.488979C89.8999 0.490194 90.5968 0.53931 91.288 0.635979C91.979 0.726691 92.6606 0.878281 93.325 1.08898C93.941 1.28625 94.5346 1.54768 95.096 1.86898C95.5875 2.14347 96.0288 2.49954 96.401 2.92198C96.6511 3.19859 96.7862 3.56015 96.779 3.93298C96.7811 4.16378 96.7334 4.39232 96.6392 4.60302C96.5449 4.81373 96.4064 5.00165 96.233 5.15398C95.8935 5.4792 95.4401 5.65866 94.97 5.65398C94.6427 5.6647 94.3198 5.57691 94.043 5.40198C93.3629 4.94074 92.6144 4.58944 91.825 4.36098C90.9777 4.10834 90.0981 3.98099 89.214 3.98298C88.2539 3.92908 87.3015 4.18231 86.495 4.70598C86.1932 4.89588 85.9437 5.15818 85.769 5.46904C85.5944 5.77989 85.5002 6.12946 85.495 6.48598C85.4942 6.77602 85.5792 7.05982 85.7394 7.30165C85.8995 7.54347 86.1276 7.73251 86.395 7.84498C87.118 8.19987 87.8821 8.46388 88.67 8.63098C89.582 8.84498 90.5653 9.06998 91.62 9.30598C92.6417 9.5338 93.6314 9.88645 94.567 10.356C95.461 10.8024 96.2396 11.4496 96.842 12.247C97.4846 13.1903 97.8007 14.3181 97.742 15.458" fill="#0A0045"/>
<path d="M120.034 10.387C120.037 10.6725 119.982 10.9556 119.873 11.2195C119.764 11.4834 119.603 11.7227 119.4 11.923C119.199 12.1327 118.957 12.2986 118.689 12.4102C118.421 12.5217 118.133 12.5765 117.843 12.571H104.443C104.521 13.3284 104.724 14.0678 105.043 14.759C105.357 15.4464 105.803 16.0653 106.356 16.5801C106.909 17.0949 107.558 17.4955 108.266 17.759C109.087 18.0668 109.958 18.2174 110.835 18.203C111.615 18.2056 112.392 18.1006 113.143 17.891C113.941 17.6686 114.702 17.3282 115.4 16.881C115.683 16.72 116.002 16.6334 116.327 16.629C116.801 16.6383 117.256 16.8155 117.611 17.129C117.808 17.2932 117.964 17.5002 118.068 17.7343C118.172 17.9683 118.221 18.2231 118.211 18.479C118.219 18.751 118.153 19.02 118.02 19.2573C117.887 19.4946 117.691 19.6912 117.455 19.826C116.452 20.5251 115.336 21.0448 114.155 21.362C112.925 21.6907 111.656 21.8541 110.383 21.848C108.931 21.8583 107.49 21.601 106.131 21.089C104.859 20.6149 103.703 19.8751 102.74 18.919C101.783 17.9541 101.031 16.8058 100.528 15.543C99.9768 14.1426 99.705 12.6478 99.728 11.143C99.7199 9.7254 99.9773 8.31882 100.487 6.996C101.472 4.54619 103.353 2.56382 105.748 1.4526C108.143 0.34138 110.872 0.184889 113.378 1.015C114.361 1.34979 115.282 1.84738 116.1 2.487C116.909 3.12825 117.612 3.89296 118.183 4.753C118.785 5.6635 119.241 6.66303 119.533 7.715C119.644 8.135 119.755 8.57599 119.869 9.03799C119.978 9.4818 120.035 9.93695 120.037 10.394L120.034 10.387ZM115.695 9.48699C115.677 8.17506 115.194 6.91206 114.333 5.922C113.845 5.37131 113.249 4.9262 112.583 4.614C111.789 4.26002 110.925 4.08913 110.056 4.114C109.214 4.08896 108.378 4.26014 107.613 4.614C106.969 4.92995 106.392 5.36689 105.913 5.901C105.456 6.40861 105.093 6.99292 104.839 7.627C104.592 8.22363 104.449 8.85811 104.416 9.50299L115.695 9.48699Z" fill="#0A0045"/>
<path d="M19.977 25.6949C19.976 26.5772 19.6692 27.4318 19.1088 28.1133C18.5484 28.7947 17.7691 29.2608 16.9036 29.4321C16.0381 29.6034 15.14 29.4694 14.3623 29.0529C13.5845 28.6363 12.9752 27.963 12.6382 27.1476C12.3012 26.3323 12.2573 25.4253 12.514 24.5811C12.7706 23.737 13.312 23.008 14.0459 22.5183C14.7798 22.0285 15.6607 21.8084 16.5387 21.8953C17.4167 21.9822 18.2374 22.3708 18.861 22.9949C19.2152 23.3496 19.4961 23.7706 19.6875 24.2339C19.879 24.6972 19.9774 25.1936 19.977 25.6949Z" fill="#36CE74"/>
<path d="M19.977 4.30401C19.9763 5.18627 19.6697 6.04098 19.1095 6.72257C18.5493 7.40415 17.7701 7.87044 16.9047 8.04201C16.0393 8.21358 15.1412 8.07982 14.3633 7.66351C13.5854 7.2472 12.976 6.57409 12.6387 5.75884C12.3014 4.9436 12.2572 4.03664 12.5136 3.19245C12.77 2.34827 13.3111 1.61908 14.0448 1.1291C14.7785 0.639116 15.6594 0.418644 16.5374 0.505238C17.4153 0.591833 18.2362 0.980138 18.86 1.60401C19.2144 1.95865 19.4954 2.37962 19.6871 2.8429C19.8787 3.30617 19.9773 3.80266 19.977 4.30401Z" fill="#FF6833"/>
<path d="M7.628 25.6949C7.6268 26.5772 7.31974 27.4318 6.75915 28.1131C6.19855 28.7944 5.41908 29.2603 4.55353 29.4314C3.68798 29.6024 2.7899 29.4681 2.01226 29.0513C1.23462 28.6345 0.625536 27.961 0.288768 27.1455C-0.0480006 26.33 -0.0916223 25.423 0.165334 24.579C0.42229 23.7349 0.963929 23.0061 1.69798 22.5166C2.43203 22.0271 3.31309 21.8072 4.19106 21.8944C5.06903 21.9816 5.88961 22.3706 6.513 22.9949C7.22797 23.7115 7.62904 24.6827 7.628 25.6949Z" fill="#FFCE00"/>
<path d="M26.12 13.9219C25.9297 13.5919 25.6558 13.3178 25.326 13.1272C24.9962 12.9365 24.6219 12.8361 24.241 12.8359H8.08098C7.69969 12.8365 7.32521 12.937 6.99496 13.1276C6.6647 13.3182 6.39024 13.5921 6.19898 13.9219L4.32898 17.1599H27.99L26.12 13.9219Z" fill="#0A0045"/>
<path d="M32.326 25.6951C32.3253 26.5774 32.0187 27.4321 31.4585 28.1137C30.8983 28.7953 30.1191 29.2615 29.2537 29.4331C28.3883 29.6047 27.4902 29.4709 26.7123 29.0546C25.9344 28.6383 25.325 27.9652 24.9877 27.15C24.6504 26.3347 24.6062 25.4277 24.8626 24.5836C25.119 23.7394 25.6601 23.0102 26.3938 22.5202C27.1275 22.0302 28.0084 21.8098 28.8863 21.8964C29.7643 21.9829 30.5852 22.3712 31.209 22.9951C31.5634 23.3498 31.8444 23.7707 32.0361 24.234C32.2277 24.6973 32.3263 25.1938 32.326 25.6951Z" fill="#924DFF"/>
</svg>
